# AST/ASF file generated using VICON BodyLanguage
# -----------------------------------------------
:version 1.10
:name VICON
:units
  mass 1.0
  length 0.45
  angle deg
:documentation
   .ast/.asf automatically generated from VICON data using
   VICON BodyBuilder and BodyLanguage model FoxedUp or BRILLIANT.MOD
:root
   order TX TY TZ RX RY RZ
   axis XYZ
   position 0 0 0  
   orientation 0 0 0 
:bonedata
  begin
     id 1 
     name lhipjoint
     direction 0.646657 -0.683706 0.338203 
     length 2.4948 
     axis 0 0 0  XYZ
  end
  begin
     id 2 
     name lfemur
     direction 0.34202 -0.939693 0  
     length 6.79491  
     axis 0 0 20  XYZ
    dof rx ry rz
    limits (-160.0 20.0)
           (-70.0 70.0)
           (-60.0 70.0)
  end
  begin
     id 3 
     name ltibia
     direction 0.34202 -0.939693 0   
     length 7.56807   
     axis 0 0 20   XYZ
    dof rx
    limits (-10.0 170.0)
  end
  begin
     id 4 
     name lfoot
     direction 0.0679796 -0.186772 0.980048   
     length 2.53018   
     axis -90 7.62852e-016 20   XYZ
    dof rx rz
    limits (-45.0 90.0)
           (-70.0 20.0)
  end
  begin
     id 5 
     name ltoes
     direction 1.53625e-011 -4.21881e-011 1   
     length 1.26912   
     axis -90 7.62852e-016 20   XYZ
    dof rx
    limits (-90.0 20.0)
  end
  begin
     id 6 
     name rhipjoint
     direction -0.618868 -0.704065 0.348274   
     length 2.42265  
     axis 0 0 0  XYZ 
  end
  begin
     id 7 
     name rfemur
     direction -0.34202 -0.939693 0   
     length 6.73814   
     axis 0 0 -20   XYZ
    dof rx ry rz
    limits (-160.0 20.0)
           (-70.0 70.0)
           (-70.0 60.0)
  end
  begin
     id 8 
     name rtibia
     direction -0.34202 -0.939693 0   
     length 7.66799   
     axis 0 0 -20   XYZ
    dof rx
    limits (-10.0 170.0)
 end
 begin
     id 9 
     name rfoot
     direction -0.0727352 -0.199838 0.977125   
     length 2.57224  
     axis -90 -7.62852e-016 -20   XYZ
    dof rx rz
    limits (-45.0 90.0)
           (-20.0 70.0)
  end
  begin
     id 10 
     name rtoes
     direction -1.53501e-011 -4.21858e-011 1   
     length 1.28858   
     axis -90 -7.62852e-016 -20   XYZ
    dof rx
    limits (-90.0 20.0)
  end
  begin
     id 11 
     name lowerback
     direction -0.0172471 0.995767 -0.0902851   
     length 2.20206   
     axis 0 0 0   XYZ
    dof rx ry rz
    limits (-20.0 45.0)
           (-30.0 30.0)
           (-30.0 30.0)
  end
  begin
     id 12 
     name upperback
     direction -0.000110737 0.999714 0.0239043   
     length 2.19523   
     axis 0 0 0   XYZ
    dof rx ry rz
    limits (-20.0 45.0)
           (-30.0 30.0)
           (-30.0 30.0)
  end
  begin
     id 13 
     name thorax
     direction 0.00704869 0.997783 0.0661741   
     length 2.21977   
     axis 0 0 0   XYZ
    dof rx ry rz
    limits (-20.0 45.0)
           (-30.0 30.0)
           (-30.0 30.0)
  end
  begin
     id 14 
     name lowerneck
     direction -0.00407501 0.995527 0.0943846   
     length 1.83142   
     axis 0 0 0   XYZ
    dof rx ry rz
    limits (-20.0 45.0)
           (-30.0 30.0)
           (-30.0 30.0)
  end
  begin
     id 15 
     name upperneck
     direction 0.0640586 0.986486 -0.150807   
     length 1.84616   
     axis 0 0 0   XYZ
    dof rx ry rz
    limits (-20.0 45.0)
           (-30.0 30.0)
           (-30.0 30.0)
  end
  begin
     id 16
     name head
     direction 0.0188017 0.99791 -0.0618239  
     length 1.85932  
     axis 0 0 0   XYZ
    dof rx ry rz
    limits (-20.0 45.0)
           (-30.0 30.0)
           (-30.0 30.0)
  end
  begin
     id 17 
     name lclavicle
     direction 0.976074 0.206905 0.066852  
     length 3.81043  
     axis 0 0 0   XYZ
    dof ry rz
    limits (-20.0 10.0)
           (0.0 20.0)
  end
  begin
     id 18 
     name lhumerus
     direction 1 -4.48971e-011 1.86916e-027   
     length 5.37587   
     axis 180 -30 -90   XYZ
    dof rx ry rz
    limits (-60.0 90.0)
           (-90.0 90.0)
           (-90.0 90.0)
  end
  begin
     id 19
     name lradius
     direction 1 -4.48968e-011 1.69187e-027   
     length 3.35977   
     axis 180 -30 -90   XYZ
    dof rx
    limits (-10.0 170.0)
  end
  begin
     id 20
     name lwrist
     direction 1 -4.48968e-011 5.8978e-027   
     length 1.67988   
     axis -3.27506e-015 90 90   XYZ
    dof ry
    limits (-180.0 0.0)
 end
  begin
     id 21 
     name lhand
     direction 1 -4.49028e-011 1.18071e-026   
     length 0.561859   
     axis -7.52654e-015 90 90   XYZ
    dof rx rz
    limits (-90.0 90.0)
           (-45.0 45.0)
  end
  begin
     id 22 
     name lfingers
     direction 1 -4.48927e-011 2.35758e-026   
     length 0.452985   
     axis -1.50534e-014 90 90   XYZ
    dof rx
    limits (0.0 90.0)
  end
  begin
     id 23
     name lthumb
     direction 0.707107 -6.34898e-011 0.707107   
     length 0.650399   
     axis -90 45 5.69224e-014   XYZ
    dof rx rz
    limits (-45.0 45.0)
           (-45.0 45.0)
  end
  begin
     id 24 
     name rclavicle
     direction -0.988403 0.151789 0.00439714   
     length 3.6942  
     axis 0 0 0   XYZ 
    dof ry rz
    limits (-10.0 20.0)
           (-20.0 0.0)
  end
  begin
     id 25 
     name rhumerus
     direction -1 -4.48978e-011 1.62495e-027  
     length 5.22819   
     axis 180 30 90   XYZ
    dof rx ry rz
    limits (-90.0 60.0)
           (-90.0 90.0)
           (-90.0 90.0)
  end
  begin
     id 26 
     name rradius
     direction -1 -4.48961e-011 3.47796e-027   
     length 3.40764   
     axis 180 30 90   XYZ
    dof rx
    limits (-10.0 170.0)
  end
  begin
     id 27 
     name rwrist
     direction -1 -4.48949e-011 5.89602e-027   
     length 1.70382   
     axis -3.27506e-015 -90 -90   XYZ
    dof ry
    limits (-180.0 0.0)
  end
  begin
     id 28
     name rhand
     direction -1 -4.48977e-011 1.17973e-026   
     length 0.583255   
     axis -7.52654e-015 -90 -90   XYZ
    dof rx rz
    limits (-90.0 90.0)
           (-45.0 45.0)
  end
  begin
     id 29
     name rfingers
     direction -1 -4.49099e-011 2.36408e-026   
     length 0.470235   
     axis -1.50534e-014 -90 -90   XYZ
    dof rx
    limits (0.0 90.0)
  end
  begin
     id 30
     name rthumb
     direction -0.707107 -6.35011e-011 0.707107   
     length 0.675167   
     axis -90 -45 -5.69224e-014   XYZ
    dof rx rz
    limits (-45.0 45.0)
           (-45.0 45.0)
  end
:hierarchy
  begin
    root lhipjoint rhipjoint lowerback
    lhipjoint lfemur
    lfemur ltibia
    ltibia lfoot
    lfoot ltoes
    rhipjoint rfemur
    rfemur rtibia
    rtibia rfoot
    rfoot rtoes
    lowerback upperback
    upperback thorax
    thorax lowerneck lclavicle rclavicle
    lowerneck upperneck
    upperneck head
    lclavicle lhumerus
    lhumerus lradius
    lradius lwrist
    lwrist lhand lthumb
    lhand lfingers
    rclavicle rhumerus
    rhumerus rradius
    rradius rwrist
    rwrist rhand rthumb
    rhand rfingers
  end

#!OML:ASF G:\JayActor3\Patient Classification 1\Patient 1\Session 2\male.ASF
:FULLY-SPECIFIED
:DEGREES
983
root -10.7539 16.7936 -4.82392 -57.6144 -87.4999 60.6623
lowerback -0.800635 1.40161 -1.72972
upperback 9.0703 1.79537 -1.06263
thorax 10.027 0.668154 -0.0176293
lowerneck -0.30028 8.47287 6.25242
upperneck 18.0241 10.7988 -0.751176
head 5.90843 5.43945 -0.680039
rclavicle -1.00883e-014 -5.01931e-015
rhumerus -32.2267 -0.388007 -93.6887
rradius 59.3205
rwrist 0.625433
rhand -10.8996 5.14914
rfingers 7.12502
rthumb 15.1172 -24.2788
lclavicle -1.00883e-014 -5.01931e-015
lhumerus -29.2574 -2.8961 92.345
lradius 40.4556
lwrist 24.1117
lhand -16.9067 22.0712
lfingers 7.12502
lthumb 9.32537 51.845
rfemur -32.1068 5.63926 18.9637
rtibia 32.5188
rfoot -14.3086 -6.2705
rtoes 13.0655
lfemur 1.46962 7.24118 -24.4722
ltibia 29.2559
lfoot -9.96278 4.41036
ltoes -22.4596
984
root -10.8859 16.8056 -4.84272 -54.9258 -87.5479 57.8716
lowerback -0.808758 1.49542 -1.47652
upperback 9.03175 1.90771 -1.03904
thorax 9.99447 0.744865 -0.12284
lowerneck -0.0919455 8.79385 6.45061
upperneck 18.0198 11.2357 -0.768453
head 5.903 5.66442 -0.696219
rclavicle 1.88721e-014 -1.49089e-014
rhumerus -32.2986 -0.564485 -93.6546
rradius 59.2434
rwrist 0.583107
rhand -10.7881 4.9494
rfingers 7.12502
rthumb 15.2246 -24.4704
lclavicle 1.88721e-014 -1.49089e-014
lhumerus -29.196 -2.99398 92.366
lradius 40.3561
lwrist 24.2372
lhand -16.8827 21.9878
lfingers 7.12502
lthumb 9.3485 51.7605
rfemur -31.5876 5.4336 19.2552
rtibia 32.5839
rfoot -14.132 -6.07055
rtoes 13.6175
lfemur 1.19206 7.48456 -24.1431
ltibia 30.5888
lfoot -9.23602 4.35744
ltoes -22.7684
985
root -11.0175 16.8182 -4.86209 -51.865 -87.6226 54.7182
lowerback -0.818811 1.60054 -1.18672
upperback 8.98696 2.03375 -1.01999
thorax 9.95875 0.831579 -0.252004
lowerneck 0.102851 9.09179 6.66243
upperneck 18.0483 11.6346 -0.755033
head 5.90892 5.87331 -0.706058
rclavicle -4.13721e-015 1.74185e-014
rhumerus -32.354 -0.77149 -93.6185
rradius 59.1309
rwrist 0.599797
rhand -10.6869 4.74195
rfingers 7.12502
rthumb 15.3221 -24.6704
lclavicle -4.13721e-015 1.74185e-014
lhumerus -29.1278 -3.11678 92.3801
lradius 40.2669
lwrist 24.365
lhand -16.8532 21.9373
lfingers 7.12502
lthumb 9.37696 51.7088
rfemur -31.0647 5.24249 19.5843
rtibia 32.6349
rfoot -13.9304 -5.8776
rtoes 14.2682
lfemur 0.788986 7.76933 -23.7654
ltibia 32.0938
lfoot -8.41 4.30852
ltoes -23.0203
986
root -11.149 16.8311 -4.88218 -48.1687 -87.7076 50.9368
lowerback -0.831864 1.71246 -0.874754
upperback 8.93383 2.16848 -1.0056
thorax 9.91818 0.924662 -0.397644
lowerneck 0.290338 9.36422 6.89945
upperneck 18.106 11.9935 -0.72121
head 5.92516 6.06525 -0.714825
rclavicle -2.12451e-015 -2.73329e-015
rhumerus -32.4041 -1.00061 -93.5811
rradius 58.9871
rwrist 0.632128
rhand -10.6101 4.53552
rfingers 7.12502
rthumb 15.396 -24.8712
lclavicle -2.12451e-015 -2.73329e-015
lhumerus -29.0659 -3.26915 92.3892
lradius 40.1971
lwrist 24.4929
lhand -16.8266 21.9192
lfingers 7.12502
lthumb 9.40261 51.6895
rfemur -30.5319 5.06673 19.9417
rtibia 32.687
rfoot -13.7536 -5.73905
rtoes 14.9582
lfemur 0.258673 8.06961 -23.3496
ltibia 33.7716
lfoot -7.46536 4.26883
ltoes -23.2136
987
root -11.2796 16.8439 -4.90283 -43.8016 -87.7732 46.4992
lowerback -0.852198 1.8256 -0.561642
upperback 8.87382 2.30603 -1.00066
thorax 9.87668 1.01963 -0.553548
lowerneck 0.469593 9.61119 7.17044
upperneck 18.1815 12.3152 -0.68403
head 5.94992 6.24128 -0.728911
rclavicle -1.54493e-014 -9.51682e-015
rhumerus -32.4451 -1.24633 -93.5448
rradius 58.8151
rwrist 0.635119
rhand -10.5561 4.33735
rfingers 7.12502
rthumb 15.4481 -25.0654
lclavicle -1.54493e-014 -9.51682e-015
lhumerus -29.0069 -3.45263 92.395
lradius 40.1565
lwrist 24.6111
lhand -16.8238 21.9141
lfingers 7.12502
lthumb 9.40537 51.6842
rfemur -30.0036 4.90018 20.3011
rtibia 32.7508
rfoot -13.6391 -5.66203
rtoes 15.6243
lfemur -0.410912 8.35143 -22.9262
ltibia 35.6152
lfoot -6.37904 4.2517
ltoes -23.2209
988
root -11.4092 16.8563 -4.92412 -38.9096 -87.7998 41.5464
lowerback -0.882381 1.92934 -0.268846
upperback 8.81352 2.4329 -1.00255
thorax 9.84197 1.1078 -0.706079
lowerneck 0.644627 9.83907 7.4551
upperneck 18.256 12.611 -0.647643
head 5.97589 6.40552 -0.74644
rclavicle 6.86428e-015 1.06847e-015
rhumerus -32.4741 -1.48072 -93.5123
rradius 58.6238
rwrist 0.567459
rhand -10.5064 4.15739
rfingers 7.12502
rthumb 15.496 -25.2416
lclavicle 6.86428e-015 1.06847e-015
lhumerus -28.9508 -3.64634 92.3987
lradius 40.1569
lwrist 24.7066
lhand -16.8588 21.8888
lfingers 7.12502
lthumb 9.37154 51.6604
rfemur -29.4791 4.74793 20.644
rtibia 32.8272
rfoot -13.6091 -5.62908
rtoes 16.288
lfemur -1.2119 8.58871 -22.5122
ltibia 37.6098
lfoot -5.13374 4.26959
ltoes -22.9211
989
root -11.5375 16.8681 -4.94615 -33.8336 -87.7703 36.415
lowerback -0.92277 2.01509 -0.0163991
upperback 8.75986 2.53807 -1.00855
thorax 9.82031 1.18189 -0.842125
lowerneck 0.804755 10.0522 7.72412
upperneck 18.322 12.8863 -0.601207
head 5.99978 6.55942 -0.759101
rclavicle -2.85132e-015 -7.1314e-015
rhumerus -32.4872 -1.68017 -93.4855
rradius 58.4231
rwrist 0.397367
rhand -10.4408 3.99755
rfingers 7.12502
rthumb 15.5591 -25.3966
lclavicle -2.85132e-015 -7.1314e-015
lhumerus -28.8933 -3.83529 92.4023
lradius 40.2085
lwrist 24.77
lhand -16.9422 21.821
lfingers 7.12502
lthumb 9.29107 51.5962
rfemur -28.9587 4.60196 20.9573
rtibia 32.9113
rfoot -13.6545 -5.61237
rtoes 16.9301
lfemur -2.13176 8.75775 -22.1253
ltibia 39.7387
lfoot -3.72745 4.33267
ltoes -22.3705
990
root -11.6644 16.8793 -4.96888 -28.7603 -87.6826 31.2829
lowerback -0.970246 2.08033 0.199728
upperback 8.7197 2.61713 -1.01368
thorax 9.81669 1.2398 -0.959074
lowerneck 0.949944 10.2495 7.96392
upperneck 18.3672 13.1416 -0.55173
head 6.01696 6.7021 -0.76742
rclavicle 1.01877e-014 -7.30534e-015
rhumerus -32.4861 -1.83938 -93.4645
rradius 58.2276
rwrist 0.112943
rhand -10.3451 3.86404
rfingers 7.12502
rthumb 15.6513 -25.5229
lclavicle 1.01877e-014 -7.30534e-015
lhumerus -28.8313 -4.02202 92.4099
lradius 40.3144
lwrist 24.8028
lhand -17.0714 21.696
lfingers 7.12502
lthumb 9.16642 51.4768
rfemur -28.4328 4.45801 21.2466
rtibia 32.9939
rfoot -13.758 -5.59465
rtoes 17.5779
lfemur -3.15072 8.84362 -21.7625
ltibia 41.9795
lfoot -2.16673 4.44388
ltoes -21.5546
991
root -11.79 16.8901 -4.99237 -23.8978 -87.5402 26.3507
lowerback -1.01434 2.12769 0.384977
upperback 8.6942 2.67265 -1.01322
thorax 9.82566 1.28304 -1.05503
lowerneck 1.06742 10.4262 8.14014
upperneck 18.3925 13.3666 -0.470685
head 6.02451 6.82801 -0.757933
rclavicle 1.12438e-014 -4.94477e-015
rhumerus -32.4797 -1.96172 -93.4466
rradius 58.0507
rwrist -0.280163
rhand -10.2142 3.74675
rfingers 7.12502
rthumb 15.7774 -25.6302
lclavicle 1.12438e-014 -4.94477e-015
lhumerus -28.765 -4.2135 92.4262
lradius 40.4742
lwrist 24.8081
lhand -17.231 21.5217
lfingers 7.12502
lthumb 9.01246 51.3092
rfemur -27.8921 4.31991 21.5198
rtibia 33.0644
rfoot -13.9012 -5.58278
rtoes 18.235
lfemur -4.24987 8.83906 -21.4174
ltibia 44.3076
lfoot -0.485943 4.59614
ltoes -20.3988
992
root -11.9141 16.9003 -5.01617 -19.3842 -87.3442 21.7464
lowerback -1.03872 2.15915 0.551777
upperback 8.68024 2.70653 -1.00756
thorax 9.8343 1.31367 -1.13781
lowerneck 1.16527 10.5764 8.26226
upperneck 18.3981 13.5546 -0.368028
head 6.02184 6.93383 -0.73616
rclavicle 2.23509e-014 -7.65321e-015
rhumerus -32.4838 -2.0534 -93.4335
rradius 57.8995
rwrist -0.752737
rhand -10.0479 3.64147
rfingers 7.12502
rthumb 15.9375 -25.7228
lclavicle 2.23509e-014 -7.65321e-015
lhumerus -28.7074 -4.42192 92.4516
lradius 40.6912
lwrist 24.8029
lhand -17.3969 21.3423
lfingers 7.12502
lthumb 8.85233 51.1366
rfemur -27.3208 4.17022 21.7857
rtibia 33.1124
rfoot -14.057 -5.59263
rtoes 18.8719
lfemur -5.40272 8.73957 -21.0888
ltibia 46.6921
lfoot 1.29541 4.7935
ltoes -18.901
993
root -12.0364 16.9101 -5.03988 -15.0733 -87.1065 17.3224
lowerback -1.02897 2.18179 0.727922
upperback 8.67224 2.72676 -0.995704
thorax 9.8292 1.33788 -1.22164
lowerneck 1.24993 10.6955 8.34476
upperneck 18.3812 13.7003 -0.25215
head 6.00818 7.01742 -0.707684
rclavicle -3.10601e-015 -9.54166e-015
rhumerus -32.5106 -2.13051 -93.4264
rradius 57.778
rwrist -1.25878
rhand -9.86854 3.54544
rfingers 7.12502
rthumb 16.1102 -25.8049
lclavicle -3.10601e-015 -9.54166e-015
lhumerus -28.6608 -4.65674 92.4846
lradius 40.9577
lwrist 24.7988
lhand -17.5553 21.1501
lfingers 7.12502
lthumb 8.69949 50.9508
rfemur -26.7167 4.01168 22.0646
rtibia 33.1319
rfoot -14.2223 -5.64249
rtoes 19.4898
lfemur -6.59707 8.55094 -20.7596
ltibia 49.1008
lfoot 3.16582 5.03431
ltoes -17.1033
994
root -12.1576 16.9194 -5.06333 -10.8382 -86.8347 12.944
lowerback -0.976798 2.20002 0.932429
upperback 8.66743 2.73811 -0.974382
thorax 9.80328 1.35937 -1.31357
lowerneck 1.32642 10.7817 8.39873
upperneck 18.3461 13.8023 -0.131221
head 5.98531 7.07828 -0.676905
rclavicle -7.442e-015 8.15017e-015
rhumerus -32.5668 -2.19592 -93.4245
rradius 57.6796
rwrist -1.76251
rhand -9.69309 3.45355
rfingers 7.12502
rthumb 16.2792 -25.8831
lclavicle -7.442e-015 8.15017e-015
lhumerus -28.6304 -4.92194 92.5253
lradius 41.2636
lwrist 24.8137
lhand -17.6933 20.9533
lfingers 7.12502
lthumb 8.5663 50.7595
rfemur -26.0683 3.84051 22.3757
rtibia 33.1201
rfoot -14.398 -5.7284
rtoes 20.0303
lfemur -7.80989 8.2835 -20.4132
ltibia 51.4986
lfoot 5.1163 5.31668
ltoes -15.0175
995
root -12.2777 16.9277 -5.08617 -6.8041 -86.5307 8.74018
lowerback -0.887373 2.21762 1.16945
upperback 8.66589 2.74596 -0.945399
thorax 9.76029 1.38115 -1.41713
lowerneck 1.39395 10.8373 8.44077
upperneck 18.2935 13.8649 -0.0165136
head 5.95589 7.1188 -0.649212
rclavicle 4.96962e-014 -2.01269e-014
rhumerus -32.6452 -2.25787 -93.4264
rradius 57.592
rwrist -2.23152
rhand -9.53423 3.36549
rfingers 7.12502
rthumb 16.4321 -25.9585
lclavicle 4.96962e-014 -2.01269e-014
lhumerus -28.607 -5.21242 92.5727
lradius 41.5975
lwrist 24.8608
lhand -17.8036 20.7607
lfingers 7.12502
lthumb 8.45991 50.5713
rfemur -25.3813 3.6553 22.7173
rtibia 33.0793
rfoot -14.5932 -5.83406
rtoes 20.4695
lfemur -9.03228 7.94667 -20.0547
ltibia 53.8539
lfoot 7.13156 5.64063
ltoes -12.7007
996
root -12.3966 16.9347 -5.10832 -2.94014 -86.2066 4.68279
lowerback -0.765695 2.23628 1.44299
upperback 8.667 2.7526 -0.90672
thorax 9.70284 1.4045 -1.53201
lowerneck 1.46058 10.8702 8.49047
upperneck 18.2263 13.9016 0.0706439
head 5.92319 7.14561 -0.633194
rclavicle -2.06736e-014 1.60022e-014
rhumerus -32.7391 -2.31031 -93.4312
rradius 57.5041
rwrist -2.65453
rhand -9.38913 3.29477
rfingers 7.12502
rthumb 16.5718 -26.0176
lclavicle -2.06736e-014 1.60022e-014
lhumerus -28.5849 -5.51237 92.6228
lradius 41.9457
lwrist 24.9475
lhand -17.8713 20.569
lfingers 7.12502
lthumb 8.39459 50.3822
rfemur -24.6611 3.47231 23.095
rtibia 33.0142
rfoot -14.8264 -5.94956
rtoes 20.7915
lfemur -10.2523 7.56274 -19.6756
ltibia 56.1376
lfoot 9.1676 6.00765
ltoes -10.1521
